<svg xmlns="http://www.w3.org/2000/svg" version="1.1" xmlns:xlink="http://www.w3.org/1999/xlink" width="100" height="100" x="0" y="0" viewBox="0 0 682.667 682.667"  style="enable-background:new 0 0 512 512" xml:space="preserve" class=""><g><defs><clipPath id="a" clipPathUnits="userSpaceOnUse"><path d="M0 512h512V0H0Z" fill="#000000" opacity="1" data-original="#000000"></path></clipPath></defs><g clip-path="url(#a)" transform="matrix(1.33333 0 0 -1.33333 0 682.667)"><path d="M0 0v-40c0-17.673 14.327-32 32-32h428c17.673 0 32 14.327 32 32V0Z" style="fill-opacity:1;fill-rule:nonzero;stroke:none" transform="translate(10 82)" fill="#e1e3e9" data-original="#e1e3e9" class=""></path><path d="M0 0v-248c0-17.673 14.327-32 32-32h428c17.673 0 32 14.327 32 32V0" style="fill-opacity:1;fill-rule:nonzero;stroke:none" transform="translate(10 330)" fill="#ffffff" data-original="#ffffff" class=""></path><path d="M0 0h-432c-16.568 0-30-13.432-30-30v-90H30v90C30-13.432 16.568 0 0 0" style="fill-opacity:1;fill-rule:nonzero;stroke:none" transform="translate(472 450)" fill="#f5737f" data-original="#f5737f" class=""></path><path d="M0 0c-12.122 0-21.948 9.827-21.948 21.948v56.104C-21.948 90.173-12.122 100 0 100s21.948-9.827 21.948-21.948V21.948C21.948 9.827 12.122 0 0 0" style="fill-opacity:1;fill-rule:nonzero;stroke:none" transform="translate(85.948 402)" fill="#e1e3e9" data-original="#e1e3e9" class=""></path><path d="M0 0c-12.122 0-21.948 9.827-21.948 21.948v56.104C-21.948 90.173-12.122 100 0 100s21.948-9.827 21.948-21.948V21.948C21.948 9.827 12.122 0 0 0" style="fill-opacity:1;fill-rule:nonzero;stroke:none" transform="translate(426.052 402)" fill="#e1e3e9" data-original="#e1e3e9" class=""></path><path d="M0 0c-12.122 0-21.948 9.827-21.948 21.948v56.104C-21.948 90.173-12.122 100 0 100s21.948-9.827 21.948-21.948V21.948C21.948 9.827 12.122 0 0 0" style="fill-opacity:1;fill-rule:nonzero;stroke:none" transform="translate(256.127 402)" fill="#e1e3e9" data-original="#e1e3e9" class=""></path><path d="M0 0h-119.667" style="stroke-width:20;stroke-linecap:round;stroke-linejoin:round;stroke-miterlimit:10;stroke-dasharray:none;stroke-opacity:1" transform="translate(232.667 450)" fill="none" stroke="#000000" stroke-width="20" stroke-linecap="round" stroke-linejoin="round" stroke-miterlimit="10" stroke-dasharray="none" stroke-opacity="" data-original="#000000" class=""></path><path d="M0 0h-119.667" style="stroke-width:20;stroke-linecap:round;stroke-linejoin:round;stroke-miterlimit:10;stroke-dasharray:none;stroke-opacity:1" transform="translate(400.333 450)" fill="none" stroke="#000000" stroke-width="20" stroke-linecap="round" stroke-linejoin="round" stroke-miterlimit="10" stroke-dasharray="none" stroke-opacity="" data-original="#000000" class=""></path><path d="M0 0h-22c-17.673 0-32-14.327-32-32v-376c0-17.673 14.327-32 32-32h428c17.674 0 32 14.327 32 32v376c0 17.673-14.326 32-32 32h-20" style="stroke-width:20;stroke-linecap:round;stroke-linejoin:round;stroke-miterlimit:10;stroke-dasharray:none;stroke-opacity:1" transform="translate(64 450)" fill="none" stroke="#000000" stroke-width="20" stroke-linecap="round" stroke-linejoin="round" stroke-miterlimit="10" stroke-dasharray="none" stroke-opacity="" data-original="#000000" class=""></path><path d="M0 0h201" style="stroke-width:20;stroke-linecap:round;stroke-linejoin:round;stroke-miterlimit:10;stroke-dasharray:none;stroke-opacity:1" transform="translate(301 330)" fill="none" stroke="#000000" stroke-width="20" stroke-linecap="round" stroke-linejoin="round" stroke-miterlimit="10" stroke-dasharray="none" stroke-opacity="" data-original="#000000" class=""></path><path d="M0 0h201" style="stroke-width:20;stroke-linecap:round;stroke-linejoin:round;stroke-miterlimit:10;stroke-dasharray:none;stroke-opacity:1" transform="translate(10 330)" fill="none" stroke="#000000" stroke-width="20" stroke-linecap="round" stroke-linejoin="round" stroke-miterlimit="10" stroke-dasharray="none" stroke-opacity="" data-original="#000000" class=""></path><path d="M0 0v0c-12.122 0-21.948 9.827-21.948 21.948v56.104C-21.948 90.173-12.122 100 0 100s21.948-9.827 21.948-21.948V21.948C21.948 9.827 12.122 0 0 0Z" style="stroke-width:20;stroke-linecap:round;stroke-linejoin:round;stroke-miterlimit:10;stroke-dasharray:none;stroke-opacity:1" transform="translate(85.948 402)" fill="none" stroke="#000000" stroke-width="20" stroke-linecap="round" stroke-linejoin="round" stroke-miterlimit="10" stroke-dasharray="none" stroke-opacity="" data-original="#000000" class=""></path><path d="M0 0v0c-12.122 0-21.948 9.827-21.948 21.948v56.104C-21.948 90.173-12.122 100 0 100s21.948-9.827 21.948-21.948V21.948C21.948 9.827 12.122 0 0 0Z" style="stroke-width:20;stroke-linecap:round;stroke-linejoin:round;stroke-miterlimit:10;stroke-dasharray:none;stroke-opacity:1" transform="translate(426.052 402)" fill="none" stroke="#000000" stroke-width="20" stroke-linecap="round" stroke-linejoin="round" stroke-miterlimit="10" stroke-dasharray="none" stroke-opacity="" data-original="#000000" class=""></path><path d="M0 0v0c-12.122 0-21.948 9.827-21.948 21.948v56.104C-21.948 90.173-12.122 100 0 100s21.948-9.827 21.948-21.948V21.948C21.948 9.827 12.122 0 0 0Z" style="stroke-width:20;stroke-linecap:round;stroke-linejoin:round;stroke-miterlimit:10;stroke-dasharray:none;stroke-opacity:1" transform="translate(256.127 402)" fill="none" stroke="#000000" stroke-width="20" stroke-linecap="round" stroke-linejoin="round" stroke-miterlimit="10" stroke-dasharray="none" stroke-opacity="" data-original="#000000" class=""></path><path d="M0 0v-248c0-17.673 14.327-32 32-32h428c17.673 0 32 14.327 32 32V0" style="stroke-width:20;stroke-linecap:round;stroke-linejoin:round;stroke-miterlimit:10;stroke-dasharray:none;stroke-opacity:1" transform="translate(10 330)" fill="none" stroke="#000000" stroke-width="20" stroke-linecap="round" stroke-linejoin="round" stroke-miterlimit="10" stroke-dasharray="none" stroke-opacity="" data-original="#000000" class=""></path><path d="M0 0v0" style="stroke-width:20;stroke-linecap:round;stroke-linejoin:round;stroke-miterlimit:10;stroke-dasharray:none;stroke-opacity:1" transform="translate(256 330)" fill="none" stroke="#000000" stroke-width="20" stroke-linecap="round" stroke-linejoin="round" stroke-miterlimit="10" stroke-dasharray="none" stroke-opacity="" data-original="#000000" class=""></path><path d="m0 0 19.476-39.463 43.55-6.328c10.626-1.544 14.869-14.603 7.18-22.098L38.693-98.606l7.439-43.374c1.815-10.583-9.293-18.654-18.797-13.658l-38.953 20.479-38.952-20.479c-9.504-4.996-20.612 3.075-18.797 13.658l7.439 43.374-31.513 30.717c-7.689 7.495-3.446 20.554 7.18 22.098l43.55 6.328L-23.235 0C-18.483 9.629-4.752 9.629 0 0" style="fill-opacity:1;fill-rule:nonzero;stroke:none" transform="translate(267.662 268.812)" fill="#ffcb7c" data-original="#ffcb7c"></path><path d="m0 0 19.476-39.463 43.55-6.328c10.626-1.544 14.869-14.603 7.18-22.098L38.693-98.606l7.439-43.374c1.815-10.583-9.293-18.654-18.797-13.658l-38.953 20.479-38.952-20.479c-9.504-4.996-20.612 3.075-18.797 13.658l7.439 43.374-31.513 30.717c-7.689 7.495-3.446 20.554 7.18 22.098l43.55 6.328L-23.235 0C-18.483 9.629-4.752 9.629 0 0Z" style="stroke-width:20;stroke-linecap:round;stroke-linejoin:round;stroke-miterlimit:10;stroke-dasharray:none;stroke-opacity:1" transform="translate(267.662 268.812)" fill="none" stroke="#000000" stroke-width="20" stroke-linecap="round" stroke-linejoin="round" stroke-miterlimit="10" stroke-dasharray="none" stroke-opacity="" data-original="#000000" class=""></path></g></g></svg>