<svg xmlns="http://www.w3.org/2000/svg" version="1.1" xmlns:xlink="http://www.w3.org/1999/xlink" width="300" height="300" x="0" y="0" viewBox="0 0 682.667 682.667" style="enable-background:new 0 0 512 512" xml:space="preserve" class=""><g><defs><clipPath id="a" clipPathUnits="userSpaceOnUse"><path d="M0 512h512V0H0Z" fill="#000000" opacity="1" data-original="#000000"></path></clipPath></defs><path d="M0 0v72.146h-232.467V-32.062Z" style="fill-opacity:1;fill-rule:nonzero;stroke:none" transform="matrix(1.33333 0 0 -1.33333 672.666 170.325)" fill="#dbd8db" data-original="#dbd8db" class=""></path><path d="m0 0-.002-32.064h232.467V0Z" style="fill-opacity:1;fill-rule:nonzero;stroke:none" transform="matrix(1.33333 0 0 -1.33333 362.71 170.325)" fill="#c9c5c9" data-original="#c9c5c9"></path><path d="M0 0h72.147v-232.467H-32.062Z" style="fill-opacity:1;fill-rule:nonzero;stroke:none" transform="matrix(1.33333 0 0 -1.33333 116.882 10)" fill="#887f88" data-original="#887f88" class=""></path><path d="M55.597 272.031h32.064v232.467H55.597Z" style="fill-opacity:1;fill-rule:nonzero;stroke:none" transform="matrix(1.33333 0 0 -1.33333 0 682.667)" fill="#736572" data-original="#736572"></path><path d="M0 0h-72.145l-32.064 232.467H0Z" style="fill-opacity:1;fill-rule:nonzero;stroke:none" transform="matrix(1.33333 0 0 -1.33333 608.537 672.667)" fill="#a5e3f0" data-original="#a5e3f0"></path><path d="M352.193 7.5h32.064v232.467h-32.064z" style="fill-opacity:1;fill-rule:nonzero;stroke:none" transform="matrix(1.33333 0 0 -1.33333 0 682.667)" fill="#7ad7ee" data-original="#7ad7ee"></path><g clip-path="url(#a)" transform="matrix(1.33333 0 0 -1.33333 0 682.667)"><path d="M0 0c1.633 10.044-6.075 18.725-15.813 18.725h7.159c7.986 0 15.387 5.457 16.67 13.339C9.649 42.109 1.941 50.79-7.797 50.79h7.159c7.986 0 15.388 5.456 16.67 13.339C17.666 74.173 9.957 82.854.219 82.854h8.016c9.738 0 17.447 8.68 15.813 18.725-1.282 7.883-8.684 13.339-16.67 13.339h-31.207v8.017c0 13.281-10.767 24.048-24.048 24.048h-23.826a80.156 80.156 0 0 1-44.465-13.463l-7.708-5.139a80.168 80.168 0 0 0-44.466-13.463h-23.825V10.709h40.08a80.17 80.17 0 0 0 28.147-5.104l36.907-13.84a80.166 80.166 0 0 1 28.147-5.104h42.216C-8.685-13.339-1.283-7.883 0 0" style="fill-opacity:1;fill-rule:nonzero;stroke:none" transform="translate(480.232 44.888)" fill="#d48c64" data-original="#d48c64"></path><path d="M0 0c0 8.163 6.167 14.773 14.252 15.901 15.421 2.151 30.165 7.734 43.27 16.459l7.773 5.174a56.272 56.272 0 0 0 31.182 9.43h47.813c0 13.281-10.767 24.048-24.048 24.048H96.414A80.159 80.159 0 0 1 51.95 57.549l-7.707-5.139A80.157 80.157 0 0 0-.22 38.948h-23.828v-104.21H0Z" style="fill-opacity:1;fill-rule:nonzero;stroke:none" transform="translate(312.113 120.859)" fill="#c6805d" data-original="#c6805d"></path><path d="M0 0c-1.633-10.045 6.075-18.725 15.813-18.725H8.654c-7.986 0-15.387-5.457-16.67-13.339C-9.649-42.109-1.941-50.79 7.797-50.79H.638c-7.986 0-15.388-5.456-16.67-13.339-1.634-10.044 6.075-18.725 15.813-18.725h-8.016c-9.738 0-17.447-8.68-15.813-18.725 1.282-7.883 8.684-13.339 16.67-13.339h31.207v-8.017c0-13.281 10.767-24.048 24.048-24.048h23.826a80.156 80.156 0 0 1 44.465 13.463l7.708 5.138a80.16 80.16 0 0 0 44.466 13.464h23.825v104.209h-40.08a80.17 80.17 0 0 0-28.147 5.104L87.033 8.235a80.166 80.166 0 0 1-28.147 5.104H16.67C8.685 13.339 1.283 7.883 0 0" style="fill-opacity:1;fill-rule:nonzero;stroke:none" transform="translate(31.768 467.111)" fill="#fbbd80" data-original="#fbbd80" class=""></path><path d="M0 0c0-8.163-6.167-14.773-14.251-15.901-15.422-2.151-30.165-7.734-43.27-16.459l-7.774-5.174a56.27 56.27 0 0 0-31.182-9.43h-47.813c0-13.281 10.767-24.048 24.048-24.048h23.829A80.158 80.158 0 0 1-51.95-57.549l7.707 5.138A80.15 80.15 0 0 0 .22-38.948h23.828v104.21H0Z" style="fill-opacity:1;fill-rule:nonzero;stroke:none" transform="translate(199.887 391.14)" fill="#f4aa73" data-original="#f4aa73" class=""></path><path d="M0 0c-10.044 1.634-18.725-6.075-18.725-15.813v7.159c0 7.986-5.457 15.388-13.339 16.67C-42.109 9.65-50.79 1.941-50.79-7.797v7.159c0 7.986-5.456 15.388-13.339 16.67C-74.173 17.666-82.854 9.957-82.854.219v8.016c0 9.738-8.681 17.447-18.725 15.813-7.882-1.282-13.339-8.684-13.339-16.67v-31.207h-8.017c-13.281 0-24.048-10.767-24.048-24.048v-23.826a80.156 80.156 0 0 1 13.463-44.465l5.139-7.708a80.165 80.165 0 0 0 13.463-44.466v-23.825h104.209v40.08a80.162 80.162 0 0 0 5.104 28.147l13.84 36.908a80.161 80.161 0 0 1 5.104 28.146v42.216C13.339-8.684 7.882-1.282 0 0" style="fill-opacity:1;fill-rule:nonzero;stroke:none" transform="translate(467.112 480.231)" fill="#ffe09c" data-original="#ffe09c" class=""></path><path d="M0 0c-8.163 0-14.773 6.167-15.9 14.252-2.151 15.421-7.735 30.165-16.46 43.27l-5.174 7.773a56.271 56.271 0 0 0-9.429 31.182v47.813c-13.282 0-24.049-10.767-24.049-24.048V96.413A80.15 80.15 0 0 1-57.548 51.95l5.138-7.707A80.158 80.158 0 0 0-38.947-.22v-23.828H65.262V0Z" style="fill-opacity:1;fill-rule:nonzero;stroke:none" transform="translate(391.14 312.112)" fill="#ffd18d" data-original="#ffd18d"></path><path d="M0 0h-104.209a8.016 8.016 0 0 1-8.017-8.016v-48.097a8.016 8.016 0 0 1 8.017-8.016H0a8.016 8.016 0 0 1 8.016 8.016v48.097A8.016 8.016 0 0 1 0 0" style="fill-opacity:1;fill-rule:nonzero;stroke:none" transform="translate(456.403 288.064)" fill="#cceffa" data-original="#cceffa"></path><path d="M0 0c-8.854 0-16.032 7.178-16.032 16.032v24.049h-16.032a8.017 8.017 0 0 1-8.017-8.017v-48.096a8.016 8.016 0 0 1 8.017-8.016H72.145a8.016 8.016 0 0 1 8.016 8.016V0Z" style="fill-opacity:1;fill-rule:nonzero;stroke:none" transform="translate(384.258 247.983)" fill="#a5e3f0" data-original="#a5e3f0"></path><path d="M0 0v72.147h232.467V-32.062Z" style="fill-opacity:1;fill-rule:nonzero;stroke:none" transform="translate(7.501 87.659)" fill="#dbf180" data-original="#dbf180"></path><path d="M0 0v-72.145h-232.465v-32.064H.002V0Z" style="fill-opacity:1;fill-rule:nonzero;stroke:none" transform="translate(239.968 159.804)" fill="#b8eb7c" data-original="#b8eb7c"></path><path d="M0 0v104.209a8.016 8.016 0 0 1-8.016 8.017h-48.097a8.016 8.016 0 0 1-8.016-8.017V0a8.016 8.016 0 0 1 8.016-8.016h48.097A8.016 8.016 0 0 1 0 0" style="fill-opacity:1;fill-rule:nonzero;stroke:none" transform="translate(288.065 55.597)" fill="#e9f9b6" data-original="#e9f9b6"></path><path d="M0 0c0-8.854 7.178-16.032 16.032-16.032h24.05v-16.032a8.016 8.016 0 0 0-8.016-8.016h-48.097a8.016 8.016 0 0 0-8.016 8.016V72.145a8.016 8.016 0 0 0 8.016 8.016H0z" style="fill-opacity:1;fill-rule:nonzero;stroke:none" transform="translate(247.984 87.657)" fill="#dbf180" data-original="#dbf180"></path><path d="M0 0c10.045-1.633 18.725 6.075 18.725 15.813V8.654c0-7.986 5.457-15.387 13.339-16.67C42.109-9.649 50.79-1.941 50.79 7.797V.638c0-7.986 5.457-15.388 13.339-16.67C74.174-17.666 82.854-9.957 82.854-.219v-8.016c0-9.738 8.681-17.447 18.725-15.813 7.883 1.282 13.339 8.684 13.339 16.67v31.207h8.017c13.281 0 24.048 10.767 24.048 24.048v23.826a80.162 80.162 0 0 1-13.463 44.466l-5.138 7.707a80.16 80.16 0 0 0-13.464 44.466v23.825H10.709v-40.08a80.157 80.157 0 0 0-5.104-28.146l-13.84-36.909a80.161 80.161 0 0 1-5.104-28.146V16.67C-13.339 8.685-7.882 1.283 0 0" style="fill-opacity:1;fill-rule:nonzero;stroke:none" transform="translate(44.888 31.768)" fill="#a46a5a" data-original="#a46a5a"></path><path d="M0 0v23.826h-104.209v-40.081a80.161 80.161 0 0 0-5.104-28.146l-13.841-36.908a80.19 80.19 0 0 1-5.104-28.147v-42.216c0-7.985 5.457-15.387 13.34-16.67 3.934-.64 7.632.187 10.709 1.974v56.898c0 6.752 1.205 13.39 3.577 19.72l13.84 36.906a103.85 103.85 0 0 1 6.631 36.573v8.032c0 4.419 3.593 8.016 8.016 8.016H.017C.017-.148 0-.075 0 0" style="fill-opacity:1;fill-rule:nonzero;stroke:none" transform="translate(159.807 200.11)" fill="#845252" data-original="#845252"></path><path d="M0 0h-104.209a8.016 8.016 0 0 0-8.017 8.016v48.097a8.016 8.016 0 0 0 8.017 8.016H0a8.016 8.016 0 0 0 8.016-8.016V8.016A8.016 8.016 0 0 0 0 0" style="fill-opacity:1;fill-rule:nonzero;stroke:none" transform="translate(159.808 223.928)" fill="#9e959e" data-original="#9e959e"></path><path d="M0 0c-8.854 0-16.032-7.178-16.032-16.032v-24.056h-16.032a8.016 8.016 0 0 0-8.017 8.016v48.097a8.016 8.016 0 0 0 8.017 8.016H72.145a8.016 8.016 0 0 0 8.016-8.016V0Z" style="fill-opacity:1;fill-rule:nonzero;stroke:none" transform="translate(87.663 264.015)" fill="#887f88" data-original="#887f88" class=""></path><path d="M0 0v-104.209a8.016 8.016 0 0 0-8.016-8.017h-48.097a8.016 8.016 0 0 0-8.016 8.017V0a8.016 8.016 0 0 0 8.016 8.016h48.097A8.016 8.016 0 0 0 0 0" style="fill-opacity:1;fill-rule:nonzero;stroke:none" transform="translate(288.065 456.402)" fill="#eceaec" data-original="#eceaec" class=""></path><path d="M0 0c0-8.854 7.178-16.032 16.032-16.032h24.049v-16.032a8.017 8.017 0 0 0-8.017-8.017h-48.096a8.016 8.016 0 0 0-8.016 8.017V72.145a8.016 8.016 0 0 0 8.016 8.016H0Z" style="fill-opacity:1;fill-rule:nonzero;stroke:none" transform="translate(247.984 384.257)" fill="#dbd8db" data-original="#dbd8db" class=""></path><path d="M0 0h16.032a8.016 8.016 0 0 0 8.016-8.016v-48.097a8.016 8.016 0 0 0-8.016-8.016h-104.21a8.017 8.017 0 0 0-8.016 8.016v48.097A8.017 8.017 0 0 0-88.178 0h56.114" style="stroke-width:15;stroke-linecap:round;stroke-linejoin:round;stroke-miterlimit:10;stroke-dasharray:none;stroke-opacity:1" transform="translate(440.371 288.065)" fill="none" stroke="#000000" stroke-width="15" stroke-linecap="round" stroke-linejoin="round" stroke-miterlimit="10" stroke-dasharray="none" stroke-opacity="" data-original="#000000" class=""></path><path d="M0 0v-24.048" style="stroke-width:15;stroke-linecap:round;stroke-linejoin:round;stroke-miterlimit:10;stroke-dasharray:none;stroke-opacity:1" transform="translate(456.403 31.548)" fill="none" stroke="#000000" stroke-width="15" stroke-linecap="round" stroke-linejoin="round" stroke-miterlimit="10" stroke-dasharray="none" stroke-opacity="" data-original="#000000" class=""></path><path d="M0 0v-64.129" style="stroke-width:15;stroke-linecap:round;stroke-linejoin:round;stroke-miterlimit:10;stroke-dasharray:none;stroke-opacity:1" transform="translate(456.403 223.935)" fill="none" stroke="#000000" stroke-width="15" stroke-linecap="round" stroke-linejoin="round" stroke-miterlimit="10" stroke-dasharray="none" stroke-opacity="" data-original="#000000" class=""></path><path d="M0 0v-41.841" style="stroke-width:15;stroke-linecap:round;stroke-linejoin:round;stroke-miterlimit:10;stroke-dasharray:none;stroke-opacity:1" transform="translate(352.193 49.341)" fill="none" stroke="#000000" stroke-width="15" stroke-linecap="round" stroke-linejoin="round" stroke-miterlimit="10" stroke-dasharray="none" stroke-opacity="" data-original="#000000" class=""></path><path d="M0 0v-50.544" style="stroke-width:15;stroke-linecap:round;stroke-linejoin:round;stroke-miterlimit:10;stroke-dasharray:none;stroke-opacity:1" transform="translate(352.193 223.935)" fill="none" stroke="#000000" stroke-width="15" stroke-linecap="round" stroke-linejoin="round" stroke-miterlimit="10" stroke-dasharray="none" stroke-opacity="" data-original="#000000" class=""></path><path d="M0 0h79.304c7.986 0 15.387-5.457 16.67-13.339 1.634-10.045-6.076-18.725-15.813-18.725h-8.016c9.737 0 17.447-8.681 15.813-18.726-1.283-7.882-8.685-13.339-16.67-13.339h-7.159c9.737 0 17.447-8.681 15.812-18.725-1.282-7.883-8.684-13.34-16.67-13.34h-7.158c9.737 0 17.447-8.68 15.812-18.725-1.282-7.882-8.684-13.339-16.67-13.339H13.04a80.166 80.166 0 0 0-28.147 5.104l-36.908 13.84a80.14 80.14 0 0 1-28.147 5.104h-40.08" style="stroke-width:15;stroke-linecap:round;stroke-linejoin:round;stroke-miterlimit:10;stroke-dasharray:none;stroke-opacity:1" transform="translate(408.307 159.806)" fill="none" stroke="#000000" stroke-width="15" stroke-linecap="round" stroke-linejoin="round" stroke-miterlimit="10" stroke-dasharray="none" stroke-opacity="" data-original="#000000" class=""></path><path d="M0 0h23.826a80.168 80.168 0 0 1 44.466 13.463l7.707 5.139a80.166 80.166 0 0 0 44.465 13.462h23.827c13.281 0 24.048-10.766 24.048-24.048V0" style="stroke-width:15;stroke-linecap:round;stroke-linejoin:round;stroke-miterlimit:10;stroke-dasharray:none;stroke-opacity:1" transform="translate(288.065 159.806)" fill="none" stroke="#000000" stroke-width="15" stroke-linecap="round" stroke-linejoin="round" stroke-miterlimit="10" stroke-dasharray="none" stroke-opacity="" data-original="#000000" class=""></path><path d="M0 0h16.032" style="stroke-width:15;stroke-linecap:round;stroke-linejoin:round;stroke-miterlimit:10;stroke-dasharray:none;stroke-opacity:1" transform="translate(464.42 127.742)" fill="none" stroke="#000000" stroke-width="15" stroke-linecap="round" stroke-linejoin="round" stroke-miterlimit="10" stroke-dasharray="none" stroke-opacity="" data-original="#000000" class=""></path><path d="M0 0h16.032" style="stroke-width:15;stroke-linecap:round;stroke-linejoin:round;stroke-miterlimit:10;stroke-dasharray:none;stroke-opacity:1" transform="translate(456.403 95.677)" fill="none" stroke="#000000" stroke-width="15" stroke-linecap="round" stroke-linejoin="round" stroke-miterlimit="10" stroke-dasharray="none" stroke-opacity="" data-original="#000000" class=""></path><path d="M0 0h16.032" style="stroke-width:15;stroke-linecap:round;stroke-linejoin:round;stroke-miterlimit:10;stroke-dasharray:none;stroke-opacity:1" transform="translate(448.387 63.613)" fill="none" stroke="#000000" stroke-width="15" stroke-linecap="round" stroke-linejoin="round" stroke-miterlimit="10" stroke-dasharray="none" stroke-opacity="" data-original="#000000" class=""></path><path d="M0 0h48.097a8.016 8.016 0 0 0 8.016-8.016v-104.21a8.016 8.016 0 0 0-8.016-8.016H0a8.016 8.016 0 0 0-8.016 8.016v104.21A8.016 8.016 0 0 0 0 0Z" style="stroke-width:15;stroke-linecap:round;stroke-linejoin:round;stroke-miterlimit:10;stroke-dasharray:none;stroke-opacity:1" transform="translate(231.952 167.822)" fill="none" stroke="#000000" stroke-width="15" stroke-linecap="round" stroke-linejoin="round" stroke-miterlimit="10" stroke-dasharray="none" stroke-opacity="" data-original="#000000" class=""></path><path d="M0 0h-24.048" style="stroke-width:15;stroke-linecap:round;stroke-linejoin:round;stroke-miterlimit:10;stroke-dasharray:none;stroke-opacity:1" transform="translate(31.548 55.597)" fill="none" stroke="#000000" stroke-width="15" stroke-linecap="round" stroke-linejoin="round" stroke-miterlimit="10" stroke-dasharray="none" stroke-opacity="" data-original="#000000" class=""></path><path d="M0 0h-64.129" style="stroke-width:15;stroke-linecap:round;stroke-linejoin:round;stroke-miterlimit:10;stroke-dasharray:none;stroke-opacity:1" transform="translate(223.935 55.597)" fill="none" stroke="#000000" stroke-width="15" stroke-linecap="round" stroke-linejoin="round" stroke-miterlimit="10" stroke-dasharray="none" stroke-opacity="" data-original="#000000" class=""></path><path d="M0 0h-42.53" style="stroke-width:15;stroke-linecap:round;stroke-linejoin:round;stroke-miterlimit:10;stroke-dasharray:none;stroke-opacity:1" transform="translate(50.03 159.806)" fill="none" stroke="#000000" stroke-width="15" stroke-linecap="round" stroke-linejoin="round" stroke-miterlimit="10" stroke-dasharray="none" stroke-opacity="" data-original="#000000" class=""></path><path d="M0 0h-51.596" style="stroke-width:15;stroke-linecap:round;stroke-linejoin:round;stroke-miterlimit:10;stroke-dasharray:none;stroke-opacity:1" transform="translate(223.935 159.806)" fill="none" stroke="#000000" stroke-width="15" stroke-linecap="round" stroke-linejoin="round" stroke-miterlimit="10" stroke-dasharray="none" stroke-opacity="" data-original="#000000" class=""></path><path d="M0 0v-79.304c0-7.986-5.457-15.388-13.339-16.67-10.045-1.634-18.726 6.075-18.726 15.813v8.016c0-9.738-8.681-17.447-18.725-15.813-7.882 1.282-13.339 8.684-13.339 16.67v7.159c0-9.737-8.681-17.447-18.725-15.813-7.883 1.283-13.34 8.684-13.34 16.67v7.159c0-9.737-8.681-17.447-18.725-15.813-7.882 1.283-13.339 8.685-13.339 16.67v42.216a80.166 80.166 0 0 0 5.104 28.147l13.84 36.908a80.138 80.138 0 0 1 5.104 28.146v40.081" style="stroke-width:15;stroke-linecap:round;stroke-linejoin:round;stroke-miterlimit:10;stroke-dasharray:none;stroke-opacity:1" transform="translate(159.807 103.694)" fill="none" stroke="#000000" stroke-width="15" stroke-linecap="round" stroke-linejoin="round" stroke-miterlimit="10" stroke-dasharray="none" stroke-opacity="" data-original="#000000" class=""></path><path d="M0 0v-23.826a80.16 80.16 0 0 1 13.463-44.466l5.138-7.707a80.16 80.16 0 0 0 13.463-44.466v-23.826c0-13.281-10.767-24.048-24.048-24.048H0" style="stroke-width:15;stroke-linecap:round;stroke-linejoin:round;stroke-miterlimit:10;stroke-dasharray:none;stroke-opacity:1" transform="translate(159.807 223.935)" fill="none" stroke="#000000" stroke-width="15" stroke-linecap="round" stroke-linejoin="round" stroke-miterlimit="10" stroke-dasharray="none" stroke-opacity="" data-original="#000000" class=""></path><path d="M0 0v-16.032" style="stroke-width:15;stroke-linecap:round;stroke-linejoin:round;stroke-miterlimit:10;stroke-dasharray:none;stroke-opacity:1" transform="translate(127.742 47.58)" fill="none" stroke="#000000" stroke-width="15" stroke-linecap="round" stroke-linejoin="round" stroke-miterlimit="10" stroke-dasharray="none" stroke-opacity="" data-original="#000000" class=""></path><path d="M0 0v-16.032" style="stroke-width:15;stroke-linecap:round;stroke-linejoin:round;stroke-miterlimit:10;stroke-dasharray:none;stroke-opacity:1" transform="translate(95.677 55.597)" fill="none" stroke="#000000" stroke-width="15" stroke-linecap="round" stroke-linejoin="round" stroke-miterlimit="10" stroke-dasharray="none" stroke-opacity="" data-original="#000000" class=""></path><path d="M0 0v-16.032" style="stroke-width:15;stroke-linecap:round;stroke-linejoin:round;stroke-miterlimit:10;stroke-dasharray:none;stroke-opacity:1" transform="translate(63.613 63.613)" fill="none" stroke="#000000" stroke-width="15" stroke-linecap="round" stroke-linejoin="round" stroke-miterlimit="10" stroke-dasharray="none" stroke-opacity="" data-original="#000000" class=""></path><path d="M0 0h-16.032a8.016 8.016 0 0 0-8.016 8.016v48.097a8.016 8.016 0 0 0 8.016 8.016h104.21a8.017 8.017 0 0 0 8.016-8.016V8.016A8.017 8.017 0 0 0 88.178 0H32.064" style="stroke-width:15;stroke-linecap:round;stroke-linejoin:round;stroke-miterlimit:10;stroke-dasharray:none;stroke-opacity:1" transform="translate(71.629 223.935)" fill="none" stroke="#000000" stroke-width="15" stroke-linecap="round" stroke-linejoin="round" stroke-miterlimit="10" stroke-dasharray="none" stroke-opacity="" data-original="#000000" class=""></path><path d="M0 0v24.048" style="stroke-width:15;stroke-linecap:round;stroke-linejoin:round;stroke-miterlimit:10;stroke-dasharray:none;stroke-opacity:1" transform="translate(55.597 480.452)" fill="none" stroke="#000000" stroke-width="15" stroke-linecap="round" stroke-linejoin="round" stroke-miterlimit="10" stroke-dasharray="none" stroke-opacity="" data-original="#000000" class=""></path><path d="M0 0v64.129" style="stroke-width:15;stroke-linecap:round;stroke-linejoin:round;stroke-miterlimit:10;stroke-dasharray:none;stroke-opacity:1" transform="translate(55.597 288.065)" fill="none" stroke="#000000" stroke-width="15" stroke-linecap="round" stroke-linejoin="round" stroke-miterlimit="10" stroke-dasharray="none" stroke-opacity="" data-original="#000000" class=""></path><path d="M0 0v42.529" style="stroke-width:15;stroke-linecap:round;stroke-linejoin:round;stroke-miterlimit:10;stroke-dasharray:none;stroke-opacity:1" transform="translate(159.807 461.971)" fill="none" stroke="#000000" stroke-width="15" stroke-linecap="round" stroke-linejoin="round" stroke-miterlimit="10" stroke-dasharray="none" stroke-opacity="" data-original="#000000" class=""></path><path d="M0 0v51.598" style="stroke-width:15;stroke-linecap:round;stroke-linejoin:round;stroke-miterlimit:10;stroke-dasharray:none;stroke-opacity:1" transform="translate(159.807 288.065)" fill="none" stroke="#000000" stroke-width="15" stroke-linecap="round" stroke-linejoin="round" stroke-miterlimit="10" stroke-dasharray="none" stroke-opacity="" data-original="#000000" class=""></path><path d="M0 0h-79.304c-7.986 0-15.387 5.457-16.67 13.339-1.634 10.045 6.076 18.725 15.813 18.725h8.016c-9.737 0-17.447 8.681-15.813 18.726 1.283 7.882 8.685 13.339 16.67 13.339h7.159c-9.737 0-17.447 8.681-15.812 18.725 1.282 7.883 8.684 13.34 16.67 13.34h7.158c-9.737 0-17.447 8.68-15.812 18.725 1.282 7.882 8.684 13.339 16.67 13.339h42.215a80.166 80.166 0 0 0 28.147-5.104l36.908-13.841a80.161 80.161 0 0 1 28.147-5.103h40.08" style="stroke-width:15;stroke-linecap:round;stroke-linejoin:round;stroke-miterlimit:10;stroke-dasharray:none;stroke-opacity:1" transform="translate(103.693 352.194)" fill="none" stroke="#000000" stroke-width="15" stroke-linecap="round" stroke-linejoin="round" stroke-miterlimit="10" stroke-dasharray="none" stroke-opacity="" data-original="#000000" class=""></path><path d="M0 0h-23.826a80.168 80.168 0 0 1-44.466-13.463l-7.707-5.139a80.166 80.166 0 0 0-44.465-13.462h-23.827c-13.281 0-24.048 10.766-24.048 24.048V0" style="stroke-width:15;stroke-linecap:round;stroke-linejoin:round;stroke-miterlimit:10;stroke-dasharray:none;stroke-opacity:1" transform="translate(223.935 352.194)" fill="none" stroke="#000000" stroke-width="15" stroke-linecap="round" stroke-linejoin="round" stroke-miterlimit="10" stroke-dasharray="none" stroke-opacity="" data-original="#000000" class=""></path><path d="M0 0h-16.032" style="stroke-width:15;stroke-linecap:round;stroke-linejoin:round;stroke-miterlimit:10;stroke-dasharray:none;stroke-opacity:1" transform="translate(47.58 384.258)" fill="none" stroke="#000000" stroke-width="15" stroke-linecap="round" stroke-linejoin="round" stroke-miterlimit="10" stroke-dasharray="none" stroke-opacity="" data-original="#000000" class=""></path><path d="M0 0h-16.032" style="stroke-width:15;stroke-linecap:round;stroke-linejoin:round;stroke-miterlimit:10;stroke-dasharray:none;stroke-opacity:1" transform="translate(55.597 416.322)" fill="none" stroke="#000000" stroke-width="15" stroke-linecap="round" stroke-linejoin="round" stroke-miterlimit="10" stroke-dasharray="none" stroke-opacity="" data-original="#000000" class=""></path><path d="M0 0h-16.032" style="stroke-width:15;stroke-linecap:round;stroke-linejoin:round;stroke-miterlimit:10;stroke-dasharray:none;stroke-opacity:1" transform="translate(63.613 448.387)" fill="none" stroke="#000000" stroke-width="15" stroke-linecap="round" stroke-linejoin="round" stroke-miterlimit="10" stroke-dasharray="none" stroke-opacity="" data-original="#000000" class=""></path><path d="M0 0h-48.097a8.016 8.016 0 0 0-8.016 8.016v104.21a8.016 8.016 0 0 0 8.016 8.016H0a8.016 8.016 0 0 0 8.016-8.016V8.016A8.016 8.016 0 0 0 0 0Z" style="stroke-width:15;stroke-linecap:round;stroke-linejoin:round;stroke-miterlimit:10;stroke-dasharray:none;stroke-opacity:1" transform="translate(280.048 344.178)" fill="none" stroke="#000000" stroke-width="15" stroke-linecap="round" stroke-linejoin="round" stroke-miterlimit="10" stroke-dasharray="none" stroke-opacity="" data-original="#000000" class=""></path><path d="M0 0h64.129" style="stroke-width:15;stroke-linecap:round;stroke-linejoin:round;stroke-miterlimit:10;stroke-dasharray:none;stroke-opacity:1" transform="translate(288.065 456.403)" fill="none" stroke="#000000" stroke-width="15" stroke-linecap="round" stroke-linejoin="round" stroke-miterlimit="10" stroke-dasharray="none" stroke-opacity="" data-original="#000000" class=""></path><path d="M0 0h52.069" style="stroke-width:15;stroke-linecap:round;stroke-linejoin:round;stroke-miterlimit:10;stroke-dasharray:none;stroke-opacity:1" transform="translate(288.065 352.194)" fill="none" stroke="#000000" stroke-width="15" stroke-linecap="round" stroke-linejoin="round" stroke-miterlimit="10" stroke-dasharray="none" stroke-opacity="" data-original="#000000" class=""></path><path d="M0 0h24.048" style="stroke-width:15;stroke-linecap:round;stroke-linejoin:round;stroke-miterlimit:10;stroke-dasharray:none;stroke-opacity:1" transform="translate(480.452 456.403)" fill="none" stroke="#000000" stroke-width="15" stroke-linecap="round" stroke-linejoin="round" stroke-miterlimit="10" stroke-dasharray="none" stroke-opacity="" data-original="#000000" class=""></path><path d="M0 0h41.841" style="stroke-width:15;stroke-linecap:round;stroke-linejoin:round;stroke-miterlimit:10;stroke-dasharray:none;stroke-opacity:1" transform="translate(462.659 352.194)" fill="none" stroke="#000000" stroke-width="15" stroke-linecap="round" stroke-linejoin="round" stroke-miterlimit="10" stroke-dasharray="none" stroke-opacity="" data-original="#000000" class=""></path><path d="M0 0v79.304c0 7.986 5.457 15.388 13.339 16.67 10.045 1.634 18.726-6.075 18.726-15.813v-8.016c0 9.738 8.681 17.447 18.725 15.813 7.882-1.282 13.339-8.684 13.339-16.67v-7.159c0 9.738 8.681 17.447 18.725 15.813 7.883-1.283 13.34-8.684 13.34-16.67v-7.159c0 9.738 8.681 17.447 18.725 15.813 7.882-1.283 13.339-8.685 13.339-16.671V13.04a80.166 80.166 0 0 0-5.104-28.147l-13.84-36.908a80.138 80.138 0 0 1-5.104-28.146v-40.081" style="stroke-width:15;stroke-linecap:round;stroke-linejoin:round;stroke-miterlimit:10;stroke-dasharray:none;stroke-opacity:1" transform="translate(352.193 408.306)" fill="none" stroke="#000000" stroke-width="15" stroke-linecap="round" stroke-linejoin="round" stroke-miterlimit="10" stroke-dasharray="none" stroke-opacity="" data-original="#000000" class=""></path><path d="M0 0v23.826a80.16 80.16 0 0 1-13.463 44.466l-5.138 7.707a80.16 80.16 0 0 0-13.463 44.466v23.825c0 13.282 10.767 24.049 24.048 24.049H0" style="stroke-width:15;stroke-linecap:round;stroke-linejoin:round;stroke-miterlimit:10;stroke-dasharray:none;stroke-opacity:1" transform="translate(352.193 288.065)" fill="none" stroke="#000000" stroke-width="15" stroke-linecap="round" stroke-linejoin="round" stroke-miterlimit="10" stroke-dasharray="none" stroke-opacity="" data-original="#000000" class=""></path><path d="M0 0v16.032" style="stroke-width:15;stroke-linecap:round;stroke-linejoin:round;stroke-miterlimit:10;stroke-dasharray:none;stroke-opacity:1" transform="translate(384.258 464.42)" fill="none" stroke="#000000" stroke-width="15" stroke-linecap="round" stroke-linejoin="round" stroke-miterlimit="10" stroke-dasharray="none" stroke-opacity="" data-original="#000000" class=""></path><path d="M0 0v16.032" style="stroke-width:15;stroke-linecap:round;stroke-linejoin:round;stroke-miterlimit:10;stroke-dasharray:none;stroke-opacity:1" transform="translate(416.323 456.403)" fill="none" stroke="#000000" stroke-width="15" stroke-linecap="round" stroke-linejoin="round" stroke-miterlimit="10" stroke-dasharray="none" stroke-opacity="" data-original="#000000" class=""></path><path d="M0 0v16.032" style="stroke-width:15;stroke-linecap:round;stroke-linejoin:round;stroke-miterlimit:10;stroke-dasharray:none;stroke-opacity:1" transform="translate(448.387 448.387)" fill="none" stroke="#000000" stroke-width="15" stroke-linecap="round" stroke-linejoin="round" stroke-miterlimit="10" stroke-dasharray="none" stroke-opacity="" data-original="#000000" class=""></path></g></g></svg>