<svg xmlns="http://www.w3.org/2000/svg" version="1.1" xmlns:xlink="http://www.w3.org/1999/xlink" width="300" height="300" x="0" y="0" viewBox="0 0 468 468" style="user-select: auto;" xml:space="preserve" class=""><g style="user-select: auto;"><ellipse cx="109.595" cy="353.693" fill="white" rx="39.062" ry="31.279" opacity="1" data-original="white" class="" style="user-select: auto;"></ellipse><ellipse cx="32.551" cy="441.934" fill="white" rx="32.551" ry="26.066" opacity="1" data-original="white" class="" style="user-select: auto;"></ellipse><path fill="white" d="M257.569 97.457c-9.945 0-20.151 2.93-26.634 7.644l-4.269 3.102 8.945 23.542c6.467-4.931 13.379-10.99 22.283-8.732 12.167 3.086-.676 19.084-4.513 23.622-8.743 10.498-12.567 21.406-11.367 32.422l.81 10.399h25.869l-.469-11.424c-.376-6.408 1.765-11.744 7.394-18.423 8.32-9.898 15.206-19.137 15.206-31.988.002-14.526-10.405-30.164-33.255-30.164zM255.191 198.175c-9.331 0-16.366 7.253-16.366 16.871 0 9.53 6.97 16.715 16.212 16.715 9.483 0 16.366-7.03 16.366-16.715-.001-9.775-6.818-16.871-16.212-16.871z" opacity="1" data-original="white" class="" style="user-select: auto;"></path><path fill="white" d="M461.589 137.798c-3.212-7.934-12.248-11.76-20.18-8.548-7.933 3.212-11.76 12.247-8.547 20.18 2.75 6.792 4.145 14.01 4.145 21.45 0 30.81-24.366 55.876-54.315 55.876-6.814 0-13.533-1.331-19.972-3.956-14.14-5.768-21.112 7.541-21.112 19.108 0 27.586-21.8 50.03-48.597 50.03-12.977 0-25.247-5.355-34.279-14.67a71.346 71.346 0 0 0 3.333-7.07c3.355-8.272-1.179-17.894-9.669-20.601-7.609-2.426-16.046 1.547-19.049 8.941-5.913 14.569-23.448 25.64-39.007 25.64-22.278 0-40.848-19.29-40.848-41.409 0-13.838 6.801-26.752 18.192-34.547 7.49-5.125 8.929-15.92 3.045-22.841-5.07-5.963-14.093-7.154-20.547-2.738a72.724 72.724 0 0 0-26.239 32.459c-25.242-4.798-44.421-27.612-44.421-54.947 0-34.853 28.327-55.642 60.711-55.642 8.631 0 16.976 1.275 24.801 3.79 7.901 2.538 16.612-1.798 19.359-9.624 2.854-8.128-1.677-17.248-9.875-19.883-7.289-2.343-14.866-3.913-22.633-4.695 5.8-16.092 20.851-27.589 38.456-27.589 12.707 0 24.503 5.98 32.361 16.406 6.957 9.231 21.739 7.578 26.495-2.942 7.963-17.607 25.246-28.984 44.03-28.984 26.796 0 48.597 22.443 48.597 50.03 0 4.89-.448 9.874-1.215 14.049-9.174 3.639-16.181 7.564-21.189 11.87-5.897 5.07-7.064 13.974-2.735 20.411 5.096 7.578 16.014 9.048 22.941 3.089 1.46-1.255 7.625-5.761 25.697-11.058a53.278 53.278 0 0 1 15.492-2.157c8.524.065 15.559-6.797 15.636-15.356.078-8.558-6.797-15.559-15.355-15.636a85.073 85.073 0 0 0-8.422.362c.112-2.273.145-4.196.145-5.574C376.817 36.347 341.113 0 297.227 0c-23.829 0-46.137 10.997-61.055 29.156-12.043-8.811-26.544-13.637-41.832-13.637-34.896 0-64.074 25.394-70.625 58.974-18.657 3.167-35.746 12.561-48.688 26.89-14.508 16.063-22.498 36.935-22.498 58.772 0 42.547 30.192 78.048 69.907 85.451a75.555 75.555 0 0 0 1.514 11.643l.005.026c7.049 33.547 36.65 57.896 70.386 57.896 16.011 0 31.162-5.295 43.532-14.919 14.672 14.422 34.325 22.679 55.138 22.679 38.837 0 71.266-28.462 78.214-65.974a83.19 83.19 0 0 0 11.467.792c47.039 0 85.308-38.97 85.308-86.87 0-11.446-2.157-22.576-6.411-33.081z" opacity="1" data-original="white" class="" style="user-select: auto;"></path></g></svg>
