<svg xmlns="http://www.w3.org/2000/svg" version="1.1" xmlns:xlink="http://www.w3.org/1999/xlink" width="512" height="512" x="0" y="0" viewBox="0 0 512 512" style="enable-background:new 0 0 512 512" xml:space="preserve" class=""><g><path d="M0 225.751v180c0 8.284 6.716 15 15 15h46.807v-210H15c-8.284 0-15 6.716-15 15zM388.181 405.987c.131-16.66-13.338-30.237-29.999-30.237H210.874a45.054 45.054 0 0 1-22.608-6.091l-49.802-28.939c-7.163-4.162-9.595-13.343-5.433-20.505s13.343-9.596 20.505-5.433l49.802 28.939a15.02 15.02 0 0 0 7.536 2.03h41.237c6.361-19.202-1.154-41.542-20.16-52.411l-88.505-50.611A15.008 15.008 0 0 0 136 240.75H91.807v150h10.652l86.833 43.417A14.99 14.99 0 0 0 196 435.75h162.182c16.477.001 29.87-13.287 29.999-29.763zM497 91.249h-46.807v210H497c8.284 0 15-6.716 15-15v-180c0-8.284-6.716-15-15-15zM123.58 106.249c0 16.569 13.431 30 30 30h147.546a45.054 45.054 0 0 1 22.608 6.091l49.802 28.939c7.163 4.162 9.595 13.343 5.433 20.505s-13.343 9.596-20.505 5.433l-49.802-28.939a15.02 15.02 0 0 0-7.536-2.03h-41.237c-6.361 19.202 1.154 41.542 20.16 52.411l88.505 50.611a15.008 15.008 0 0 0 7.446 1.979h44.193v-150h-10.652l-86.833-43.417A14.99 14.99 0 0 0 316 76.249H153.58c-16.568 0-30 13.432-30 30z" fill="#fff" opacity="1" data-original="#000000" class=""></path></g></svg>