<svg xmlns="http://www.w3.org/2000/svg" version="1.1" xmlns:xlink="http://www.w3.org/1999/xlink" width="300" height="300" x="0" y="0" viewBox="0 0 60 54" style="enable-background:new 0 0 512 512" xml:space="preserve" class=""><g><g fill="none" fill-rule="nonzero"><path fill="#f5f5f5" d="M39 38v13a2.006 2.006 0 0 1-2 2H3a2.006 2.006 0 0 1-2-2V16h38z" opacity="1" data-original="#f5f5f5" class=""></path><path fill="#cfd8dc" d="M36 16v35a2.006 2.006 0 0 1-2 2h3a2.006 2.006 0 0 0 2-2V16z" opacity="1" data-original="#cfd8dc"></path><path fill="#ef314c" d="M8 6H5a4 4 0 0 0-4 4v6h38v-6a4 4 0 0 0-4-4z" opacity="1" data-original="#ef314c" class=""></path><path fill="#bb193b" d="M35 6h-3a4 4 0 0 1 4 4v6h3v-6a4 4 0 0 0-4-4z" opacity="1" data-original="#bb193b" class=""></path><path fill="#e91e63" d="m57.709 19.761-5.76 3.98-5.69-8.23 5.76-3.98a3 3 0 0 1 4.17.76l2.28 3.29a3.01 3.01 0 0 1-.76 4.18z" opacity="1" data-original="#e91e63" class=""></path><path fill="#ad1457" d="m58.469 15.581-2.28-3.29a2.991 2.991 0 0 0-3.959-.876c.38.218.708.517.959.876l2.28 3.29a3.01 3.01 0 0 1-.76 4.18l-3.73 2.578.97 1.4 5.76-3.98a3.01 3.01 0 0 0 .76-4.178z" opacity="1" data-original="#ad1457" class=""></path><path fill="#ffdc00" d="m51.949 23.741-4.11 2.84-5.69-8.22 4.11-2.85z" opacity="1" data-original="#ffdc00"></path><path fill="#fec108" d="m46.259 15.511-2.028 1.407 4.718 6.823-2.081 1.438.971 1.402 4.11-2.84z" opacity="1" data-original="#fec108"></path><path fill="#f44335" d="m47.839 26.581-19.59 13.55a.7.7 0 0 1-.23.11l-.09-.25-5.35-7.74-.28-.09a1.07 1.07 0 0 1 .26-.26l19.59-13.54z" opacity="1" data-original="#f44335" class=""></path><path fill="#c81e1e" d="m42.149 18.361-2.03 1.4 4.72 6.817-17.712 12.254.8 1.159.09.25a.7.7 0 0 0 .23-.11l19.59-13.55z" opacity="1" data-original="#c81e1e" class=""></path><path fill="#545c60" d="m21.779 41.771-4.69 1.13a1 1 0 0 1-1.06-1.53l2.71-3.98.17.11 2.82 4.07z" opacity="1" data-original="#545c60"></path><path fill="#ffe0b2" d="M28.019 40.241a.3.3 0 0 1-.1.04l-6.14 1.49-.05-.2-2.82-4.07-.17-.11 3.56-5.23.28.09 5.35 7.74z" opacity="1" data-original="#ffe0b2"></path><path fill="#dfc49c" d="m27.929 39.991-5.35-7.74-.28-.09-1.381 2.028 4.011 5.8.09.25a.3.3 0 0 1-.1.04l-3.5.849.306.441.05.2 6.14-1.49a.3.3 0 0 0 .1-.04z" opacity="1" data-original="#dfc49c"></path><g fill="#000"><path d="M7 48h18a1 1 0 0 0 0-2H7a1 1 0 0 0 0 2zM58.274 20.58a4 4 0 0 0 1.015-5.565l-2.274-3.29a4.006 4.006 0 0 0-5.565-1.015L21.991 31.083a2 2 0 0 0-.512.517L15.2 40.8a2 2 0 0 0 2.123 3.071l10.829-2.621c.239-.057.465-.16.666-.3zM28.351 38.844 23.8 32.263l18.1-12.514 4.551 6.581zm15.188-20.232 2.468-1.707 4.551 6.581-2.467 1.706zm9.049-6.257a2 2 0 0 1 2.782.508l2.275 3.289c.626.91.4 2.154-.507 2.784L52.2 22.348l-4.551-6.58zM22.415 33.776l4.032 5.83-4.166 1.01L20 37.317zm-5.562 8.156 1.939-2.845 1.408 2.034zM7 23h22.85a1 1 0 0 0 0-2H7a1 1 0 0 0 0 2zM7 28h15.62a1 1 0 0 0 0-2H7a1 1 0 0 0 0 2zM7 33h10.57a1 1 0 0 0 0-2H7a1 1 0 0 0 0 2zM7 38h7.16a1 1 0 0 0 0-2H7a1 1 0 0 0 0 2zM7 43h4.84a1 1 0 0 0 0-2H7a1 1 0 0 0 0 2z" fill="#000000" opacity="1" data-original="#000000" class=""></path><path d="M3 54h34a3 3 0 0 0 3-3V38a1 1 0 0 0-2 0v13a1 1 0 0 1-1 1H3a1 1 0 0 1-1-1V17h37a1 1 0 0 0 1-1v-6a5.006 5.006 0 0 0-5-5h-.058C34.633 2.129 33.015 0 31 0s-3.633 2.129-3.942 5h-3.116C23.633 2.129 22.015 0 20 0s-3.633 2.129-3.942 5h-3.116C12.633 2.129 11.015 0 9 0S5.367 2.129 5.058 5H5a5.006 5.006 0 0 0-5 5v41a3 3 0 0 0 3 3zM2 10a3 3 0 0 1 3-3h3a1 1 0 1 0 0-2h-.923C7.327 3.233 8.2 2 9 2c.944 0 2 1.71 2 4s-1.056 4-2 4a1 1 0 0 0 0 2c2.015 0 3.633-2.129 3.942-5H19a1 1 0 0 0 0-2h-.923C18.327 3.233 19.2 2 20 2c.944 0 2 1.71 2 4s-1.056 4-2 4a1 1 0 0 0 0 2c2.015 0 3.633-2.129 3.942-5H30a1 1 0 0 0 0-2h-.923C29.327 3.233 30.2 2 31 2c.944 0 2 1.71 2 4s-1.056 4-2 4a1 1 0 0 0 0 2c2.015 0 3.633-2.129 3.942-5H35a3 3 0 0 1 3 3v5H2z" fill="#000000" opacity="1" data-original="#000000" class=""></path><path d="M33 45v2h-2a1 1 0 0 0 0 2h3a1 1 0 0 0 1-1v-3a1 1 0 0 0-2 0z" fill="#000000" opacity="1" data-original="#000000" class=""></path></g></g></g></svg>