<svg xmlns="http://www.w3.org/2000/svg" version="1.1" xmlns:xlink="http://www.w3.org/1999/xlink" width="512" height="512" x="0" y="0" viewBox="0 0 32 32" style="enable-background:new 0 0 512 512" xml:space="preserve" class=""><g><linearGradient id="a" x1="16" x2="16" y1="1" y2="31" gradientUnits="userSpaceOnUse"><stop offset="0" stop-color="#00bcd4"></stop><stop offset="1" stop-color="#1976d2"></stop></linearGradient><path fill="url(#a)" d="m28.952 8.462 1.755-1.755A.999.999 0 0 0 30 5h-3V2a1 1 0 0 0-1.707-.707l-1.754 1.754A14.899 14.899 0 0 0 16 1C7.729 1 1 7.729 1 16s6.729 15 15 15 15-6.729 15-15c0-2.665-.71-5.252-2.048-7.538zM26 7h1.586l-1 1H24V5.414l1-1V6a1 1 0 0 0 1 1zm-7 9c0 1.654-1.346 3-3 3s-3-1.346-3-3 1.346-3 3-3c.462 0 .894.113 1.285.3l-1.992 1.993a1 1 0 1 0 1.414 1.414l1.992-1.992c.188.391.301.823.301 1.285zm-.247-4.167A4.965 4.965 0 0 0 16 11c-2.757 0-5 2.243-5 5s2.243 5 5 5 5-2.243 5-5a4.962 4.962 0 0 0-.833-2.753l2.145-2.144A7.952 7.952 0 0 1 24 16c0 4.411-3.589 8-8 8s-8-3.589-8-8 3.589-8 8-8c1.846 0 3.543.634 4.897 1.688zM16 29C8.832 29 3 23.168 3 16S8.832 3 16 3c2.152 0 4.246.535 6.124 1.546A.985.985 0 0 0 22 5v3.019A9.938 9.938 0 0 0 16 6C10.486 6 6 10.486 6 16s4.486 10 10 10 10-4.486 10-10a9.934 9.934 0 0 0-2.02-6H27a.99.99 0 0 0 .455-.124A12.907 12.907 0 0 1 29 16c0 7.168-5.832 13-13 13z" opacity="1" data-original="url(#a)" class=""></path></g></svg>